<?xml version="1.0" standalone="no"?>
<!DOCTYPE svg PUBLIC "-//W3C//DTD SVG 20010904//EN"
 "http://www.w3.org/TR/2001/REC-SVG-20010904/DTD/svg10.dtd">
<svg version="1.0" xmlns="http://www.w3.org/2000/svg"
 width="256.000000pt" height="256.000000pt" viewBox="0 0 256.000000 256.000000"
 preserveAspectRatio="xMidYMid meet">
<metadata>
Created by potrace 1.11, written by Peter Selinger 2001-2013
</metadata>
<g transform="translate(0.000000,256.000000) scale(0.100000,-0.100000)"
fill="#000000" stroke="none">
<path d="M1785 2526 c-111 -28 -165 -46 -185 -62 -8 -6 -101 -53 -206 -103
-194 -92 -295 -145 -477 -249 -56 -32 -155 -87 -220 -121 -137 -72 -410 -241
-512 -317 -104 -78 -130 -110 -128 -161 2 -46 31 -121 67 -167 14 -20 25 -52
29 -88 4 -31 18 -119 32 -195 14 -75 25 -149 23 -163 -2 -14 2 -29 8 -35 19
-16 147 -551 140 -580 -5 -19 -1 -31 12 -43 10 -9 32 -61 47 -115 23 -80 33
-100 51 -107 25 -10 256 -13 344 -6 30 3 109 14 175 25 149 25 328 54 505 82
308 48 690 138 835 197 85 34 85 34 85 221 0 162 -25 645 -34 660 -3 4 -8 43
-11 87 -10 139 -55 244 -55 128 0 -31 -3 -34 -30 -34 -32 0 -37 9 -18 28 6 6
9 14 6 18 -4 3 -14 -8 -23 -25 -17 -35 -27 -38 -49 -16 -14 15 -14 27 0 123 3
17 9 32 14 32 6 0 10 9 10 19 0 11 5 23 10 26 19 12 -1 25 -21 14 -11 -5 -29
-7 -41 -3 -20 6 -19 8 13 24 19 10 38 16 43 13 4 -3 19 -30 32 -59 14 -31 30
-54 39 -54 19 0 19 -5 -5 65 -22 64 -44 95 -69 95 -9 0 -40 -9 -69 -20 -121
-46 -464 -99 -767 -120 -209 -14 -405 -29 -435 -35 -14 -2 -86 -9 -160 -15
-74 -6 -155 -13 -180 -16 -65 -9 -43 7 75 54 202 80 1097 481 1195 535 30 16
80 43 110 59 81 44 93 61 88 130 -8 103 -114 273 -183 291 -11 3 -61 -5 -110
-17z m121 -51 c4 -8 10 -13 14 -10 10 6 34 -22 59 -72 25 -49 25 -53 8 -53 -7
0 -20 19 -28 43 -25 68 -44 60 -62 -25 -23 -105 -32 -169 -29 -203 2 -29 2
-29 -13 -10 -10 12 -15 34 -13 57 2 20 0 34 -4 32 -5 -3 -8 -16 -8 -29 0 -13
-4 -25 -9 -27 -4 -1 -10 -22 -14 -45 -4 -36 -2 -43 11 -43 18 -1 -56 -42 -95
-54 -17 -5 -23 -3 -23 7 0 9 -5 17 -10 19 -6 2 -12 18 -14 35 -3 18 -7 37 -11
43 -3 5 0 10 7 10 9 0 9 3 -2 10 -13 9 -13 11 -1 19 8 5 16 24 17 43 0 18 2
34 4 36 4 3 6 12 14 64 12 72 26 47 19 -35 -3 -39 -3 -69 1 -66 6 6 9 21 21
124 14 110 18 120 53 123 18 2 32 7 32 13 0 16 70 11 76 -6z m-346 -166 c0
-59 -22 -182 -30 -169 -10 16 -18 -21 -25 -111 -4 -48 -2 -67 4 -54 5 12 16
27 25 34 14 12 16 10 16 -17 0 -32 -24 -49 -62 -43 -9 1 -22 -7 -28 -18 -6
-12 -15 -21 -21 -21 -6 0 -6 7 1 20 9 16 8 20 -5 20 -8 0 -15 -6 -15 -13 0
-15 -42 -54 -79 -74 -33 -17 -44 -17 -38 1 3 8 -1 17 -9 20 -8 3 -14 10 -14
16 0 6 5 8 12 4 7 -5 8 -3 4 5 -5 7 -14 10 -22 7 -8 -3 -14 -3 -14 1 0 12 32
118 41 135 5 10 9 30 9 45 1 16 7 39 14 52 7 13 11 32 9 41 -2 9 3 22 11 29 9
8 16 21 16 31 0 9 5 31 11 49 8 23 17 31 35 31 16 0 24 -6 25 -17 0 -12 4 -8
11 10 9 25 14 27 64 27 l54 0 0 -41z m-375 -109 c-18 -20 -17 -20 7 -20 33 0
42 -31 32 -119 -4 -36 -8 -70 -9 -76 0 -5 -9 -45 -20 -88 -28 -116 -48 -92
-31 38 4 29 -2 18 -22 -40 -20 -56 -35 -83 -50 -90 -15 -6 -22 -19 -22 -36 0
-20 -8 -30 -32 -42 -29 -14 -33 -14 -36 -2 -2 8 -8 15 -13 15 -6 0 -8 54 -5
143 4 110 3 138 -6 125 -11 -15 -13 -15 -22 4 -16 32 -45 31 -57 0 -11 -28
-19 -203 -11 -236 5 -17 6 -16 19 5 l14 24 -7 -25 c-3 -14 -12 -35 -20 -47 -8
-12 -14 -30 -14 -38 0 -9 -5 -25 -11 -36 -8 -16 -13 -18 -25 -8 -11 9 -14 8
-14 -3 0 -20 -45 -68 -65 -68 -8 0 -15 -5 -15 -11 0 -7 -10 -9 -27 -4 -37 9
-39 12 -19 34 13 14 17 34 15 72 -1 30 1 88 5 129 7 68 11 78 41 107 19 18 39
50 45 73 12 44 25 55 17 14 l-4 -25 28 27 c16 15 29 33 29 40 0 11 91 74 106
74 3 0 4 -19 1 -42 -4 -39 -4 -41 10 -23 7 11 13 32 11 47 -2 23 4 31 36 48
38 21 39 18 4 -32 -19 -27 -25 -84 -8 -73 6 3 10 16 10 27 0 12 10 32 22 45
l22 24 13 -23 c10 -18 12 -20 13 -5 0 9 5 17 10 17 6 0 10 15 10 34 0 26 7 39
27 54 34 24 43 20 18 -8z m831 0 c0 -11 -6 -22 -13 -24 -13 -6 -19 25 -6 37
12 12 19 7 19 -13z m-146 -100 c-20 -13 -33 -13 -25 0 3 6 14 10 23 10 15 0
15 -2 2 -10z m-203 -75 c2 -6 -13 -18 -32 -27 -36 -16 -42 -11 -24 23 11 21
49 23 56 4z m-880 -55 c-12 -32 -36 -47 -48 -29 -4 8 -9 5 -13 -9 -4 -12 -26
-28 -51 -39 -24 -10 -40 -20 -35 -23 5 -3 5 -43 1 -90 -4 -47 -4 -87 1 -88 5
-2 3 -14 -5 -26 -8 -12 -18 -42 -22 -66 -9 -53 -21 -80 -37 -80 -7 0 -9 19 -5
58 3 34 2 49 -3 37 -5 -11 -9 -30 -9 -42 -1 -22 -45 -78 -62 -78 -5 0 -18 -13
-29 -30 -18 -27 -27 -22 -20 10 3 14 7 64 15 179 7 95 9 101 41 135 19 20 34
44 34 54 0 9 5 17 10 17 6 0 10 -5 10 -11 0 -8 4 -8 14 0 7 6 20 9 28 6 12 -5
14 0 12 17 -4 20 8 30 88 75 51 28 94 52 95 52 1 1 -4 -12 -10 -29z m444 -153
c-10 -9 -11 -8 -5 6 3 10 9 15 12 12 3 -3 0 -11 -7 -18z m-721 9 c0 -2 -7 -7
-16 -10 -8 -3 -12 -2 -9 4 6 10 25 14 25 6z m650 -43 c-64 -28 -68 -28 -45 -3
10 11 22 17 26 14 5 -3 19 2 31 10 12 8 26 12 31 9 6 -3 -13 -17 -43 -30z
m-215 -33 c-4 -12 -9 -19 -12 -17 -3 3 -2 15 2 27 4 12 9 19 12 17 3 -3 2 -15
-2 -27z m-592 -87 c-2 -27 -8 -64 -13 -83 -5 -19 -12 -61 -15 -93 -5 -41 -11
-60 -23 -64 -9 -4 -19 -9 -22 -12 -14 -17 -50 -29 -69 -24 -20 5 -21 10 -16
77 9 128 29 186 64 186 5 0 14 6 18 14 7 14 60 46 74 46 4 0 5 -21 2 -47z
m612 37 c-3 -5 -12 -10 -18 -10 -7 0 -6 4 3 10 19 12 23 12 15 0z m-55 -15 c0
-8 -4 -15 -10 -15 -5 0 -7 7 -4 15 4 8 8 15 10 15 2 0 4 -7 4 -15z m-756 -80
c-4 -8 -10 -15 -14 -15 -5 0 -12 -10 -15 -21 -5 -16 -9 -18 -15 -9 -6 9 -11 1
-16 -24 -4 -27 -9 -34 -15 -24 -17 27 -8 49 33 78 47 35 49 35 42 15z m1873
-65 c12 0 14 -8 10 -37 l-5 -38 15 35 c19 45 15 43 56 24 l35 -17 -15 -51
c-23 -81 -25 -86 -34 -86 -13 0 -11 67 2 91 6 11 8 25 6 32 -3 7 -8 4 -13 -8
-4 -11 -20 -42 -36 -68 -15 -26 -28 -56 -28 -66 0 -22 -23 -34 -38 -19 -13 13
-32 2 -32 -18 0 -8 -7 -14 -15 -14 -8 0 -15 -4 -15 -10 0 -5 9 -10 21 -10 11
0 17 -5 14 -10 -3 -6 -18 -7 -33 -3 -24 6 -26 5 -13 -11 8 -10 21 -14 32 -11
10 4 24 3 31 -1 6 -4 -9 -13 -38 -20 -61 -16 -64 -16 -64 -4 0 6 7 10 15 10 8
0 15 5 15 10 0 6 -7 10 -15 10 -18 0 -20 16 -4 26 8 4 7 9 -2 15 -8 5 -9 9 -3
9 6 0 10 23 9 58 0 41 4 62 17 76 9 10 20 32 23 47 4 16 11 29 17 29 6 0 8 -9
5 -20 -9 -34 11 -12 23 26 8 25 16 34 27 30 8 -3 22 -6 30 -6z m-191 -37 c-3
-7 -1 -13 4 -13 6 0 10 5 10 10 0 6 7 10 15 10 8 0 15 -1 15 -2 0 -2 -11 -43
-24 -93 -23 -87 -32 -94 -38 -30 -3 24 -6 18 -18 -32 -14 -61 -35 -87 -51 -61
-6 9 -13 8 -28 -6 -11 -10 -24 -15 -29 -12 -5 3 -19 -6 -30 -19 -12 -14 -29
-25 -38 -25 -8 0 -13 -4 -9 -10 3 -5 12 -7 20 -3 8 3 15 0 15 -6 0 -6 8 -11
18 -12 14 0 14 -2 -3 -9 -26 -11 -85 -13 -67 -2 10 7 10 14 -2 37 -13 24 -13
31 0 50 8 12 11 25 7 29 -4 4 -3 10 3 14 13 9 56 121 56 145 -1 9 3 15 7 13 4
-3 14 6 21 19 12 23 18 25 82 23 52 -1 68 -5 64 -15z m-283 -4 l24 -11 -24
-91 c-13 -50 -22 -100 -19 -110 3 -13 0 -17 -10 -13 -8 3 -14 1 -14 -4 0 -6
-13 -10 -30 -10 -22 0 -30 -5 -30 -18 0 -15 6 -18 33 -15 17 3 42 9 54 15 29
14 37 6 37 -37 0 -35 -13 -59 -21 -39 -3 8 -16 9 -44 3 -46 -11 -59 -6 -59 21
0 24 -33 34 -59 18 -29 -18 -26 -29 7 -23 26 6 27 6 7 -10 -20 -17 -19 -17 8
-13 42 8 32 -8 -13 -20 -23 -5 -40 -6 -40 -1 0 5 6 9 13 9 6 0 4 5 -5 11 -22
12 -24 49 -3 49 8 0 15 5 15 10 0 6 -12 10 -26 10 l-26 0 22 18 c16 13 24 31
25 59 2 46 26 133 36 133 4 0 10 12 13 26 6 22 11 25 32 20 17 -5 26 -2 30 9
7 18 33 19 67 4z m-1372 -36 c-8 -15 -10 -15 -11 -2 0 17 10 32 18 25 2 -3 -1
-13 -7 -23z m-74 -5 c-3 -8 -6 -5 -6 6 -1 11 2 17 5 13 3 -3 4 -12 1 -19z
m963 13 c0 -12 -39 -21 -45 -11 -3 5 5 11 17 13 13 2 24 5 26 6 1 0 2 -3 2 -8z
m235 -15 c8 -8 19 -16 24 -18 5 -2 0 -50 -13 -113 -13 -60 -25 -103 -29 -95
-4 12 -6 11 -6 -2 -1 -10 -8 -18 -16 -18 -9 0 -12 -6 -9 -15 4 -11 13 -13 28
-9 21 6 21 6 1 -12 -26 -24 -83 -45 -91 -33 -3 5 0 9 6 9 17 0 6 25 -11 25
-58 2 -129 45 -95 58 7 3 13 19 14 36 1 54 25 143 33 129 5 -7 6 -22 4 -33 -3
-11 7 6 21 38 22 46 30 56 45 52 14 -5 19 -1 19 11 0 13 6 15 31 10 16 -3 37
-12 44 -20z m-360 4 c-3 -5 -11 -10 -16 -10 -6 0 -7 5 -4 10 3 6 11 10 16 10
6 0 7 -4 4 -10z m-799 -35 c-4 -14 -11 -23 -16 -20 -6 3 -5 16 2 30 14 31 23
25 14 -10z m657 19 c-6 -16 -40 -14 -73 3 -23 12 -21 13 26 11 36 -2 50 -6 47
-14z m97 12 c0 -3 -4 -8 -10 -11 -5 -3 -10 -1 -10 4 0 6 5 11 10 11 6 0 10 -2
10 -4z m-285 -31 c-34 -16 -94 -20 -79 -6 8 8 48 16 94 19 8 0 2 -6 -15 -13z
m423 1 c6 -4 12 -15 12 -24 1 -26 -64 -222 -72 -222 -14 0 -9 76 7 113 8 20
15 47 15 59 -1 18 -6 13 -25 -22 -13 -25 -24 -54 -25 -65 0 -11 -7 -29 -15
-39 -8 -11 -15 -31 -15 -44 0 -19 -4 -23 -20 -19 -11 3 -20 1 -20 -5 0 -5 -15
-8 -32 -6 -23 2 -32 7 -30 18 2 8 5 29 6 45 1 17 4 35 7 40 3 6 14 36 24 68
19 58 42 80 31 30 -3 -16 7 -3 21 28 l27 55 46 -1 c25 -1 51 -4 58 -9z m-658
-36 c-11 -7 -9 -11 13 -19 16 -6 35 -11 43 -11 18 0 18 -9 -3 -100 -9 -41 -17
-87 -17 -102 -1 -16 -5 -26 -11 -25 -11 4 -11 92 0 147 11 51 -8 26 -28 -39
-9 -29 -17 -71 -17 -92 0 -33 -3 -39 -21 -39 -11 0 -29 5 -40 11 -17 9 -20 7
-17 -8 2 -13 -4 -19 -24 -21 -34 -4 -48 20 -43 79 2 24 4 48 4 53 1 5 4 6 8 3
6 -7 29 44 40 91 9 38 26 25 18 -15 -3 -21 -8 -49 -11 -63 -4 -22 -3 -23 5 -5
5 11 20 48 33 83 12 34 29 62 35 62 7 0 13 5 13 10 0 6 8 10 18 10 14 0 15 -2
2 -10z m329 4 c28 -6 31 -10 31 -44 0 -21 -6 -56 -14 -78 -8 -22 -18 -61 -21
-87 -5 -27 -12 -44 -19 -42 -15 5 -20 62 -6 87 6 11 13 42 16 68 l5 47 -31
-63 c-16 -35 -30 -67 -30 -73 0 -5 -4 -9 -9 -9 -6 0 -11 -14 -13 -32 -3 -30
-6 -32 -43 -34 -22 -1 -48 3 -57 8 -16 8 -17 12 -4 43 8 18 11 36 8 40 -4 3
-1 10 6 14 7 4 14 16 17 27 11 49 31 90 43 86 6 -2 12 3 12 10 0 34 39 46 109
32z m-449 -69 c0 -8 -7 -15 -15 -15 -8 0 -15 7 -15 15 0 8 7 15 15 15 8 0 15
-7 15 -15z m-60 -20 c0 -8 -4 -15 -10 -15 -5 0 -10 7 -10 15 0 8 5 15 10 15 6
0 10 -7 10 -15z m27 -37 c-3 -7 -5 -2 -5 12 0 14 2 19 5 13 2 -7 2 -19 0 -25z
m1593 -4 c0 -11 6 -14 20 -9 25 8 26 -3 3 -21 -14 -10 -15 -15 -6 -25 14 -14
61 -7 235 33 71 17 91 18 103 8 23 -19 18 -30 -12 -30 -16 0 -35 -5 -43 -11
-12 -8 -10 -9 9 -4 16 5 21 4 16 -4 -3 -7 -23 -11 -43 -10 -20 1 -68 -5 -107
-14 -117 -26 -189 -40 -211 -41 -11 -1 -28 -7 -37 -14 -8 -7 -39 -13 -69 -13
-29 -1 -58 -5 -63 -9 -15 -12 -200 -49 -330 -66 -111 -14 -186 -17 -216 -8 -9
2 -22 -2 -29 -11 -7 -8 -16 -15 -21 -15 -14 0 -11 28 4 33 6 3 -6 6 -27 6 -22
1 -36 4 -32 8 6 7 47 13 226 32 47 6 101 13 120 16 26 5 31 4 20 -4 -24 -17
11 -14 47 4 27 14 164 42 238 50 17 1 44 8 60 15 17 7 48 13 69 14 45 1 59 22
24 36 l-23 9 23 7 c17 5 20 9 11 20 -6 7 -8 18 -4 24 10 16 45 12 45 -6z
m-490 -110 c0 -9 -112 -55 -124 -51 -6 2 14 15 44 29 55 26 80 33 80 22z
m-420 -87 c0 -26 -4 -33 -20 -34 -11 -1 -20 4 -20 12 0 7 -3 21 -7 31 -5 13
-3 16 10 11 9 -3 17 -2 17 3 0 6 5 10 10 10 6 0 10 -15 10 -33z m-54 -1 c7
-28 -1 -46 -21 -46 -14 0 -25 21 -25 51 0 29 38 25 46 -5z m-93 2 c-4 -7 -6
-24 -4 -38 4 -33 -14 -15 -23 23 -5 23 -3 27 14 27 15 0 19 -4 13 -12z m37
-20 c0 -25 -3 -29 -10 -18 -13 20 -13 50 0 50 6 0 10 -15 10 -32z m-85 12 c3
-5 -1 -10 -9 -10 -10 0 -13 -6 -10 -15 4 -8 11 -12 16 -9 6 4 9 1 6 -7 -9 -27
-33 -15 -36 19 -2 23 1 32 12 32 8 0 18 -4 21 -10z m-74 -27 l2 -28 4 28 c6
38 25 34 21 -5 -3 -36 -37 -55 -39 -21 0 15 -2 14 -9 -4 -5 -13 -16 -23 -25
-23 -8 0 -16 10 -16 23 -2 19 -2 20 -6 2 -2 -11 -18 -28 -35 -38 -27 -15 -30
-15 -24 -1 3 8 6 29 6 46 0 27 3 30 25 26 14 -3 25 -1 25 5 0 5 11 7 25 5 14
-3 25 -1 25 3 0 23 20 5 21 -18z m903 6 c11 1 16 -2 12 -8 -4 -6 -14 -11 -23
-11 -12 0 -14 -7 -10 -32 3 -18 8 -41 12 -50 4 -10 3 -18 -3 -18 -5 0 -13 11
-16 24 -5 22 -10 24 -46 19 -36 -5 -40 -3 -50 21 -12 34 -12 36 0 36 6 0 10
-6 10 -14 0 -7 6 -19 14 -25 24 -20 56 4 56 40 0 22 4 28 13 22 6 -4 20 -6 31
-4z m-1100 -18 c6 -9 -15 -61 -25 -61 -13 0 -17 55 -6 62 16 10 25 10 31 -1z
m62 -23 c3 -28 -10 -38 -19 -15 -3 6 -6 3 -6 -8 -1 -17 -3 -17 -11 -5 -5 8
-10 25 -10 38 0 36 42 26 46 -10z m1634 -10 c0 -4 -12 -8 -27 -8 -16 0 -35 -5
-43 -11 -12 -8 -10 -9 9 -4 17 5 21 4 16 -5 -4 -7 -22 -10 -44 -7 -20 2 -58
-3 -86 -11 -27 -8 -75 -18 -105 -23 -30 -5 -66 -11 -80 -14 -14 -3 -34 -6 -45
-6 -11 0 -27 -7 -36 -15 -11 -9 -37 -15 -70 -15 -30 -1 -58 -5 -64 -9 -5 -5
-30 -11 -55 -15 -25 -4 -70 -13 -100 -21 -72 -19 -302 -46 -360 -42 -25 1 -55
-3 -68 -10 -18 -11 -22 -10 -22 2 0 8 6 17 13 20 6 3 -5 5 -25 4 -20 -2 -40 0
-43 4 -11 11 57 26 150 34 130 10 143 11 182 19 28 5 32 9 23 20 -8 9 -22 13
-39 9 l-26 -5 22 17 23 16 -20 26 c-15 19 -17 28 -9 38 16 19 68 18 76 -1 5
-14 8 -14 24 1 11 10 22 14 26 10 4 -4 -6 -17 -21 -30 -25 -19 -27 -25 -17
-43 17 -33 13 -41 -9 -15 -10 12 -21 18 -25 13 -9 -16 17 -50 34 -44 9 2 5 -3
-9 -11 -36 -22 -11 -19 48 5 l50 21 -13 31 c-7 18 -16 48 -20 67 -7 31 -6 33
8 21 9 -7 21 -10 27 -6 14 8 13 -8 -2 -23 -9 -9 -8 -21 2 -51 11 -34 16 -39
40 -36 46 6 183 34 220 45 19 5 43 7 53 4 10 -3 24 0 32 6 8 6 38 15 67 20 81
13 197 37 253 53 44 12 52 12 68 -1 9 -8 17 -19 17 -24z m-1325 -116 c6 -4 12
-18 13 -32 2 -36 -34 -39 -42 -4 -10 37 5 54 29 36z m-47 -40 c3 -28 0 -33
-15 -30 -12 2 -19 14 -21 36 -3 28 0 33 15 30 12 -2 19 -14 21 -36z m-61 -7
c1 -19 -3 -35 -8 -35 -5 0 -9 10 -9 23 0 13 -5 28 -12 35 -9 9 -8 12 8 12 15
0 19 -8 21 -35z m-104 13 c-4 -7 -8 -17 -9 -23 -4 -35 -7 -37 -15 -10 -6 20
-5 32 4 37 18 12 29 9 20 -4z m57 1 c0 -5 -4 -7 -10 -4 -5 3 -10 -3 -10 -14 0
-15 4 -19 18 -14 15 6 15 5 3 -10 -7 -9 -17 -15 -21 -12 -10 6 -19 53 -12 60
9 9 32 5 32 -6z m1498 -11 c19 -19 14 -28 -13 -28 -18 0 -23 -4 -19 -15 5 -12
-4 -15 -47 -14 -30 1 -76 -6 -104 -14 -46 -14 -144 -33 -204 -41 -13 -1 -30
-11 -37 -20 -7 -10 -18 -15 -23 -11 -14 8 -36 -13 -45 -43 -7 -21 -43 -48 -52
-40 -2 3 7 19 21 38 13 18 22 37 19 41 -8 14 -47 10 -68 -6 -11 -8 -31 -15
-44 -15 -13 0 -52 -7 -86 -16 -116 -30 -339 -53 -392 -40 -13 4 -29 0 -38 -9
-27 -28 -50 -14 -24 14 11 11 6 13 -24 8 -21 -3 -38 -2 -38 3 0 11 35 21 87
25 49 3 159 15 201 21 18 3 30 9 27 15 -7 11 12 76 25 84 5 3 20 1 34 -5 20
-7 26 -16 26 -40 0 -37 13 -39 28 -5 16 36 15 45 -5 38 -16 -6 -16 -4 1 15 11
12 23 22 28 22 13 0 9 -42 -7 -73 l-14 -28 47 7 c26 3 77 12 115 20 37 8 71
13 75 12 4 0 14 2 22 5 35 14 94 26 102 21 5 -3 21 -1 36 5 15 6 83 22 152 35
69 14 141 29 160 35 49 13 64 13 78 -1z m-1649 -50 c1 -10 -3 -18 -9 -18 -5 0
-10 17 -9 38 0 30 2 33 9 17 5 -11 9 -28 9 -37z m49 35 c-1 -10 2 -24 6 -32 7
-11 5 -13 -7 -8 -9 3 -18 1 -20 -6 -6 -17 -13 -7 -20 31 -6 29 -4 32 19 32 18
0 24 -5 22 -17z m-80 -26 c2 -18 -2 -29 -13 -33 -20 -8 -21 -7 -30 34 -6 31
-5 33 17 30 17 -2 24 -10 26 -31z m1879 -144 c-3 -10 -5 -2 -5 17 0 19 2 27 5
18 2 -10 2 -26 0 -35z m-167 27 c-11 -7 -12 -12 -4 -17 9 -6 8 -11 -1 -20 -10
-9 -14 -7 -18 12 -5 28 0 35 22 35 14 0 14 -2 1 -10z m-47 -20 c-3 -10 0 -21
6 -24 18 -12 12 -23 -11 -21 -31 2 -40 60 -10 62 14 1 18 -3 15 -17z m-1364
-21 c9 -26 8 -30 -4 -25 -8 3 -15 2 -15 -3 0 -5 -10 -8 -22 -7 -13 1 -26 -3
-30 -8 -9 -14 -14 -7 -21 32 -6 29 -4 32 19 32 21 0 25 -4 21 -20 -3 -11 -1
-23 4 -26 5 -3 12 8 15 25 8 39 19 39 33 0z m1271 21 c0 -5 -4 -10 -9 -10 -4
0 -7 -12 -5 -27 l4 -28 -14 30 c-10 22 -11 32 -3 37 17 11 27 10 27 -2z m49
-21 c14 -41 14 -44 -4 -29 -11 9 -15 9 -15 1 0 -7 -4 -10 -8 -7 -11 6 -3 66 8
66 4 0 13 -14 19 -31z m-1436 9 c-4 -7 -8 -17 -9 -23 -4 -35 -7 -37 -15 -10
-6 20 -5 32 4 37 18 12 29 9 20 -4z m-44 -41 c0 -18 -3 -26 -6 -20 -3 10 -9 9
-20 -3 -13 -13 -17 -13 -24 -2 -15 23 -11 61 6 55 8 -4 17 -2 20 4 11 17 25
-2 24 -34z m-65 -12 c5 -16 1 -21 -14 -21 -15 0 -20 7 -20 26 0 50 18 46 34
-5z m-54 25 c0 -5 -4 -10 -10 -10 -5 0 -10 -10 -10 -22 0 -19 2 -20 11 -8 9
12 10 12 7 1 -3 -8 -9 -16 -15 -18 -12 -4 -27 43 -18 57 8 13 35 13 35 0z
m1763 -18 c21 -23 13 -32 -27 -33 -17 0 -40 -5 -51 -10 -16 -7 -14 -8 10 -3
22 4 27 2 19 -6 -6 -6 -42 -11 -79 -11 -38 0 -83 -6 -101 -14 -18 -7 -59 -16
-91 -20 -32 -3 -88 -14 -125 -23 -60 -15 -68 -19 -68 -40 0 -13 14 -42 31 -63
22 -28 27 -40 17 -43 -19 -6 -48 -4 -43 4 2 3 -12 21 -31 40 -27 26 -34 40
-29 57 7 28 -14 31 -50 7 -14 -9 -57 -18 -102 -21 -43 -3 -87 -12 -98 -19 -11
-8 -30 -14 -44 -14 -14 0 -90 -13 -170 -29 -168 -33 -281 -51 -316 -51 -32 0
-31 -7 6 -58 27 -37 29 -43 13 -49 -12 -4 -29 7 -61 40 l-44 47 -99 0 c-55 0
-102 -4 -105 -10 -8 -12 -35 -13 -35 -2 0 5 10 14 22 20 21 11 20 12 -9 7 -18
-3 -47 -8 -64 -11 -21 -4 -29 -3 -25 4 8 13 76 26 246 47 135 17 279 40 314
51 12 4 16 2 12 -5 -4 -6 -16 -11 -26 -11 -10 0 -21 -4 -24 -9 -6 -9 43 -2 59
9 25 17 136 40 365 75 14 2 52 12 85 21 33 9 76 16 95 15 19 0 51 5 70 13 19
8 64 19 100 25 162 27 330 62 390 81 39 12 46 11 63 -8z m-915 -17 c-1 -14 -6
-25 -11 -25 -4 0 -5 -5 -2 -10 3 -6 -1 -13 -9 -16 -9 -3 -14 -10 -11 -14 5 -9
-44 -60 -57 -60 -11 0 -28 36 -28 59 0 27 40 23 51 -5 6 -16 8 -15 8 8 1 17 8
29 21 33 13 4 20 15 20 31 0 13 4 24 10 24 5 0 9 -11 8 -25z m-142 -75 c-5
-42 -14 -48 -22 -15 -5 18 -2 30 7 36 19 12 19 13 15 -21z m-41 10 c3 -5 -1
-10 -9 -10 -18 0 -19 -2 -10 -25 5 -13 8 -14 15 -3 7 10 9 9 9 -5 0 -24 -33
-18 -38 6 -7 36 17 63 33 37z m-58 -15 c-4 -8 -2 -17 3 -20 16 -10 12 -35 -5
-35 -8 0 -15 5 -15 11 0 5 6 7 13 3 6 -4 4 2 -5 13 -22 25 -23 43 -2 43 10 0
14 -6 11 -15z m1131 -156 c-23 -15 -27 -9 -12 21 9 16 12 34 9 40 -3 6 -3 20
2 33 6 17 9 10 11 -32 2 -37 -1 -57 -10 -62z m-1568 91 c-12 -8 -13 -12 -2
-19 11 -7 11 -9 -2 -14 -12 -5 -16 0 -16 18 0 17 6 25 18 25 14 0 15 -2 2 -10z
m-45 -29 c0 -16 -3 -33 -7 -37 -5 -4 -8 4 -8 17 0 14 -5 30 -12 37 -9 9 -8 12
8 12 14 0 19 -7 19 -29z m1735 4 c0 -26 -17 -39 -67 -50 -31 -6 -32 -5 -24 17
7 18 16 23 40 22 22 -1 32 3 36 17 9 26 15 24 15 -6z m-1832 3 c7 -7 12 -22
12 -35 0 -35 -36 -31 -43 4 -8 42 6 56 31 31z m57 -27 c5 -17 4 -21 -5 -16 -7
4 -16 1 -21 -6 -6 -10 -9 -5 -9 17 0 52 20 55 35 5z m380 20 c-3 -6 -11 -11
-17 -11 -6 0 -6 6 2 15 14 17 26 13 15 -4z m1243 -14 c4 -36 -23 -47 -51 -19
-17 18 -18 23 -7 37 21 25 54 15 58 -18z m-825 -105 c4 -32 2 -50 -3 -47 -6 4
-10 15 -10 25 0 10 -7 26 -15 34 -13 12 -14 20 -5 37 16 29 26 14 33 -49z
m685 36 c-17 -25 -39 -30 -45 -10 -3 7 4 12 16 12 12 0 21 5 21 10 0 6 5 10
11 10 7 0 6 -8 -3 -22z m-58 -19 c0 -5 -7 -9 -16 -9 -8 0 -13 -4 -10 -9 4 -5
-2 -7 -13 -4 -10 3 -22 0 -25 -6 -4 -6 -15 -11 -24 -11 -13 0 -12 3 6 16 12 8
22 24 22 34 0 17 4 18 30 9 17 -6 30 -15 30 -20z m155 21 c-3 -5 -13 -10 -21
-10 -8 0 -12 5 -9 10 3 6 13 10 21 10 8 0 12 -4 9 -10z m-845 -21 c6 -11 10
-30 8 -42 -2 -18 -10 -22 -38 -22 -31 0 -35 3 -38 28 -6 52 45 79 68 36z
m-581 -106 c0 -61 -2 -65 -11 -38 -6 17 -15 33 -20 36 -10 7 10 69 23 69 5 0
9 -30 8 -67z m971 56 c0 -7 11 -10 28 -7 15 3 41 2 57 -2 27 -5 22 -8 -40 -22
-38 -9 -91 -19 -117 -22 -47 -6 -47 -5 -28 14 11 11 20 24 20 29 0 10 22 18
58 20 12 0 22 -4 22 -10z m-1022 -76 c-1 -35 -3 -45 -5 -26 -3 23 -8 30 -19
26 -17 -6 -17 -2 -2 32 18 41 28 29 26 -32z m842 36 c0 -20 -28 -38 -71 -45
l-42 -7 19 26 c10 14 28 28 39 30 38 8 55 7 55 -4z m-981 -61 c-5 -18 -9 -34
-9 -35 0 -1 11 2 25 7 14 5 25 6 25 1 0 -11 -25 -21 -51 -21 -22 0 -22 0 -9
35 10 26 9 27 -17 21 -27 -6 -27 -6 -9 9 11 8 28 15 37 15 15 0 16 -5 8 -32z
m86 22 c7 -12 -12 -40 -26 -40 -5 0 -9 11 -9 25 0 25 23 35 35 15z m725 -20
c-19 -12 -80 -13 -80 -1 0 4 11 6 24 4 13 -3 29 2 37 10 9 10 18 12 24 6 6 -7
5 -13 -5 -19z m-93 -12 c-3 -8 -6 -5 -6 6 -1 11 2 17 5 13 3 -3 4 -12 1 -19z
m-804 -28 c-7 -28 -23 -36 -23 -11 0 10 -3 27 -7 36 -5 15 -3 16 15 6 14 -7
19 -17 15 -31z m97 -66 c0 -9 -11 -14 -31 -14 -30 0 -31 5 -6 38 11 15 37 -2
37 -24z"/>
<path d="M1854 2345 c-3 -8 -4 -20 -2 -27 3 -7 7 -1 10 15 6 29 1 36 -8 12z"/>
<path d="M1711 2194 c0 -11 3 -14 6 -6 3 7 2 16 -1 19 -3 4 -6 -2 -5 -13z"/>
<path d="M1475 2290 c-3 -5 -1 -10 4 -10 6 0 11 5 11 10 0 6 -2 10 -4 10 -3 0
-8 -4 -11 -10z"/>
<path d="M1021 1798 c0 -9 -4 -25 -7 -35 -5 -14 -4 -15 5 -7 7 7 11 22 8 35
-2 13 -5 16 -6 7z"/>
<path d="M830 1771 c0 -6 4 -13 10 -16 6 -3 7 1 4 9 -7 18 -14 21 -14 7z"/>
<path d="M830 1690 c0 -5 5 -10 11 -10 5 0 7 5 4 10 -3 6 -8 10 -11 10 -2 0
-4 -4 -4 -10z"/>
<path d="M567 1680 c-3 -11 -1 -23 4 -26 5 -3 9 6 9 20 0 31 -6 34 -13 6z"/>
<path d="M1736 1344 c-4 -14 -5 -29 -2 -31 3 -3 8 7 12 21 3 15 4 29 1 32 -2
3 -8 -7 -11 -22z"/>
<path d="M1510 1210 c0 -5 -9 -10 -19 -10 -11 0 -23 -4 -26 -10 -7 -11 27 -13
63 -4 27 8 29 34 2 34 -11 0 -20 -4 -20 -10z"/>
<path d="M1210 1220 c0 -5 5 -10 10 -10 6 0 10 5 10 10 0 6 -4 10 -10 10 -5 0
-10 -4 -10 -10z"/>
<path d="M1220 1186 c0 -17 14 -29 23 -20 8 8 -3 34 -14 34 -5 0 -9 -6 -9 -14z"/>
<path d="M1800 1206 c0 -9 5 -16 10 -16 6 0 10 4 10 9 0 6 -4 13 -10 16 -5 3
-10 -1 -10 -9z"/>
<path d="M1243 973 c-18 -6 -16 -33 1 -33 19 0 31 19 20 30 -5 4 -15 5 -21 3z"/>
<path d="M1286 735 c-16 -16 -21 -46 -10 -57 3 -3 14 -4 24 -1 26 7 36 41 17
60 -12 13 -16 12 -31 -2z"/>
<path d="M1330 669 c0 -5 5 -7 10 -4 6 3 10 8 10 11 0 2 -4 4 -10 4 -5 0 -10
-5 -10 -11z"/>
<path d="M2167 394 c-9 -10 2 -24 19 -24 8 0 14 7 14 15 0 15 -21 21 -33 9z"/>
<path d="M1271 281 c-14 -26 12 -50 34 -31 11 9 12 17 4 31 -5 10 -14 19 -19
19 -5 0 -14 -9 -19 -19z"/>
</g>
</svg>
